<svg fill="none" height="44" viewBox="0 0 44 44" width="44" xmlns="http://www.w3.org/2000/svg"><g fill="#175d31"><path d="m11 11h2.75v5.5h-2.75zm0 8.25h2.75v5.5h-2.75zm8.25-8.25h2.75v5.5h-2.75zm0 8.25h2.75v5.5h-2.75zm-8.25 8.25h2.75v5.5h-2.75zm8.25 0h2.75v5.5h-2.75z"/><path d="m41.25 19.25c0-.7293-.2897-1.4288-.8055-1.9445-.5157-.5158-1.2152-.8055-1.9445-.8055h-8.25v-11c0-.72935-.2897-1.42882-.8055-1.94454-.5157-.51573-1.2152-.80546-1.9445-.80546h-22c-.72935 0-1.42882.28973-1.94454.80546-.51573.51572-.80546 1.21519-.80546 1.94454v35.75h38.5zm-35.75-13.75h22v33h-22zm24.75 33v-19.25h8.25v19.25z"/></g></svg>