<svg fill="none" height="44" viewBox="0 0 44 44" width="44" xmlns="http://www.w3.org/2000/svg"><path d="m21.9998 28.4165c1.0084 0 1.8719-.3587 2.5905-1.0762.7187-.7174 1.0774-1.5809 1.0762-2.5905-.0012-1.0095-.3599-1.8724-1.0762-2.5886-.7162-.7163-1.5797-1.0756-2.5905-1.078-1.0107-.0025-1.8736.3569-2.5886 1.078s-1.0744 1.584-1.078 2.5886c-.0037 1.0047.3556 1.8682 1.078 2.5905.7223.7224 1.5852 1.0811 2.5886 1.0762zm-14.66663 10.0833c-1.00833 0-1.87122-.3587-2.58867-1.0761-.71744-.7175-1.07677-1.581-1.078-2.5905v-20.1667c0-1.0083.35934-1.8712 1.078-2.5887.71867-.7174 1.58156-1.0767 2.58867-1.078h7.33333v-3.66663c0-1.00833.3593-1.87122 1.078-2.58867.7187-.71744 1.5816-1.07677 2.5887-1.078h7.3333c1.0083 0 1.8718.35934 2.5905 1.078.7187.71867 1.0774 1.58156 1.0762 2.58867v3.66663h7.3333c1.0083 0 1.8718.3594 2.5905 1.078.7187.7187 1.0774 1.5816 1.0762 2.5887v20.1667c0 1.0083-.3588 1.8718-1.0762 2.5905-.7174.7186-1.5809 1.0774-2.5905 1.0761zm0-3.6666h29.33333v-20.1667h-29.33333zm11.00003-23.8334h7.3333v-3.66663h-7.3333z" fill="#175d31"/></svg>