<svg width="40" height="40" viewBox="0 0 40 40" fill="none" xmlns="http://www.w3.org/2000/svg">
<path d="M10.672 32.8368C8.18184 32.8368 6.05456 31.9748 4.29013 30.2509C2.5257 28.527 1.64294 26.42 1.64185 23.9298C1.64185 21.7954 2.2849 19.8936 3.57101 18.2244C4.85711 16.5552 6.54 15.488 8.61966 15.0229C9.30376 12.5054 10.672 10.4668 12.7243 8.907C14.7766 7.34726 17.1025 6.56738 19.7021 6.56738C22.9037 6.56738 25.6198 7.68274 27.8505 9.91345C30.0812 12.1442 31.196 14.8598 31.195 18.0603C33.0831 18.2792 34.6499 19.0935 35.8955 20.5033C37.1411 21.9131 37.7634 23.5615 37.7623 25.4485C37.7623 27.5008 37.0443 29.2456 35.6082 30.6827C34.1721 32.1199 32.4274 32.8379 30.374 32.8368H10.672ZM10.672 29.5531H30.374C31.5233 29.5531 32.4947 29.1564 33.2883 28.3628C34.0819 27.5692 34.4786 26.5978 34.4786 25.4485C34.4786 24.2992 34.0819 23.3278 33.2883 22.5343C32.4947 21.7407 31.5233 21.3439 30.374 21.3439H27.9113V18.0603C27.9113 15.789 27.1106 13.8528 25.5093 12.2514C23.9079 10.6501 21.9722 9.84997 19.7021 9.85106C17.432 9.85216 15.4962 10.6528 13.8949 12.2531C12.2936 13.8533 11.4929 15.789 11.4929 18.0603H10.672C9.08485 18.0603 7.73033 18.6212 6.60841 19.7431C5.48649 20.8651 4.92552 22.2196 4.92552 23.8067C4.92552 25.3938 5.48649 26.7483 6.60841 27.8702C7.73033 28.9922 9.08485 29.5531 10.672 29.5531Z" fill="#175D31"/>
</svg>
