<svg width="34" height="34" viewBox="0 0 34 34" fill="none" xmlns="http://www.w3.org/2000/svg">
<path d="M17 16.3514C16.1843 16.3514 15.402 16.0273 14.8253 15.4505C14.2485 14.8738 13.9244 14.0915 13.9244 13.2758C13.9244 12.4601 14.2485 11.6778 14.8253 11.101C15.402 10.5242 16.1843 10.2002 17 10.2002C17.8159 10.2002 18.5984 10.5243 19.1753 11.1012C19.7522 11.6781 20.0763 12.4606 20.0763 13.2765C20.0763 14.0924 19.7522 14.8748 19.1753 15.4518C18.5984 16.0287 17.8159 16.3528 17 16.3528V20.9654" stroke="#175D31" stroke-width="2" stroke-linecap="round" stroke-linejoin="round"/>
<path d="M29.2853 16.8443V9.36425C29.2853 8.79033 29.1047 8.23097 28.7691 7.76542C28.4334 7.29986 27.9598 6.95173 27.4153 6.77033L20.4538 4.44842C18.2104 3.71023 15.7896 3.71023 13.5462 4.44842L6.58466 6.76892C6.04039 6.95023 5.56694 7.29816 5.23134 7.76343C4.89573 8.22869 4.71498 8.78774 4.71466 9.36142V16.8414C4.71492 18.6878 5.18324 20.504 6.07587 22.1203C6.96849 23.7366 8.25628 25.1002 9.81891 26.0838L15.5536 29.6878C15.9875 29.9583 16.4886 30.1017 17 30.1017C17.5114 30.1017 18.0125 29.9583 18.4464 29.6878L24.1797 26.0838C25.7423 25.1005 27.0303 23.7372 27.9232 22.1211C28.816 20.5051 29.2847 18.6891 29.2853 16.8428" stroke="#175D31" stroke-width="2" stroke-linecap="round" stroke-linejoin="round"/>
</svg>
