<svg width="34" height="34" viewBox="0 0 34 34" fill="none" xmlns="http://www.w3.org/2000/svg">
<path d="M22.6666 31.1666V30.4583C22.6666 28.8928 23.987 27.6249 25.3895 26.9308C26.7537 26.2578 27.8998 25.1458 28.0457 23.8424L28.3333 21.2499L31.1666 19.8333L27.625 14.5208C27.6257 11.6044 26.5362 8.79321 24.5703 6.63911C22.6044 4.48501 19.9042 3.1437 17 2.87859M9.20831 24.0776V31.1666M9.20831 24.0776C7.73935 23.0407 6.52774 21.6808 5.66665 20.1024M9.20831 24.0776C10.2708 24.8284 11.4665 25.405 12.75 25.7677M7.79165 14.1666V16.9999M12.0416 14.1666V16.9999M7.79165 2.83325V5.66659M12.0416 2.83325V5.66659M5.66665 7.79159H2.83331M5.66665 12.0416H2.83331M17 7.79159H14.1666M17 12.0416H14.1666M11.3333 5.66659H8.49998C7.16406 5.66659 6.49681 5.66659 6.08173 6.08167C5.66665 6.49675 5.66665 7.164 5.66665 8.49992V11.3333C5.66665 12.6692 5.66665 13.3364 6.08173 13.7515C6.49681 14.1666 7.16406 14.1666 8.49998 14.1666H11.3333C12.6692 14.1666 13.3365 14.1666 13.7516 13.7515C14.1666 13.3364 14.1666 12.6692 14.1666 11.3333V8.49992C14.1666 7.164 14.1666 6.49675 13.7516 6.08167C13.3365 5.66659 12.6692 5.66659 11.3333 5.66659Z" stroke="#175D31" stroke-width="1.5" stroke-linecap="round" stroke-linejoin="round"/>
</svg>
