<svg width="68" height="65" viewBox="0 0 68 65" fill="none" xmlns="http://www.w3.org/2000/svg">
<rect width="68" height="65" rx="3" fill="#F6F6F6"/>
<path d="M28.7854 32.0671L32.9035 27.9714L29.2019 24.2871L27.1122 26.3582L25.8356 25.0919L27.9145 23.0208L24.395 19.5296L20.2661 23.6253L28.7854 32.0671ZM42.9103 46.0892L47.0393 41.9934L43.5215 38.5022L41.4336 40.5626L40.1589 39.2963L42.2342 37.2252L38.556 33.5874L34.4361 37.6724L42.9103 46.0892ZM25.2604 46.8081H19.5755V41.1671L27.498 33.3084L17.7725 23.6271L24.395 17.0579L34.2017 26.7499L42.2558 18.7498C42.4541 18.5519 42.6633 18.4094 42.8833 18.3223C43.1032 18.2353 43.3376 18.1918 43.5864 18.1918C43.8353 18.1918 44.0697 18.2353 44.2896 18.3223C44.5096 18.4094 44.7194 18.5519 44.9189 18.7498L47.8614 21.7831C48.061 21.9799 48.1992 22.1873 48.2761 22.4055C48.3531 22.6237 48.3909 22.8562 48.3897 23.1031C48.3885 23.3499 48.3501 23.5752 48.2743 23.7791C48.1986 23.983 48.0616 24.1833 47.8632 24.3801L39.8758 32.3461L49.5689 42.0274L42.9428 48.5967L33.183 38.9494L25.2604 46.8081ZM21.3785 45.0196H24.4924L42.1981 27.4671L39.0717 24.3693L21.3785 41.9308V45.0196ZM40.6565 25.9075L39.0735 24.3693L42.1963 27.4688L40.6565 25.9075Z" fill="#175D31"/>
</svg>
