<svg width="30" height="30" viewBox="0 0 30 30" fill="none" xmlns="http://www.w3.org/2000/svg">
<path d="M11.0824 3.69415H4.92553C4.59895 3.69415 4.28574 3.82389 4.05482 4.05482C3.82389 4.28574 3.69415 4.59895 3.69415 4.92553V11.0824C3.69415 11.409 3.82389 11.7222 4.05482 11.9531C4.28574 12.1841 4.59895 12.3138 4.92553 12.3138H11.0824C11.409 12.3138 11.7222 12.1841 11.9531 11.9531C12.1841 11.7222 12.3138 11.409 12.3138 11.0824V4.92553C12.3138 4.59895 12.1841 4.28574 11.9531 4.05482C11.7222 3.82389 11.409 3.69415 11.0824 3.69415ZM11.0824 17.2393H4.92553C4.59895 17.2393 4.28574 17.3691 4.05482 17.6C3.82389 17.8309 3.69415 18.1441 3.69415 18.4707V24.6276C3.69415 24.9542 3.82389 25.2674 4.05482 25.4983C4.28574 25.7292 4.59895 25.859 4.92553 25.859H11.0824C11.409 25.859 11.7222 25.7292 11.9531 25.4983C12.1841 25.2674 12.3138 24.9542 12.3138 24.6276V18.4707C12.3138 18.1441 12.1841 17.8309 11.9531 17.6C11.7222 17.3691 11.409 17.2393 11.0824 17.2393ZM21.5492 12.3138C22.1151 12.3138 22.6756 12.2023 23.1985 11.9857C23.7213 11.7692 24.1965 11.4517 24.5967 11.0515C24.9969 10.6513 25.3143 10.1762 25.5309 9.65328C25.7475 9.13039 25.859 8.56996 25.859 8.00398C25.859 7.43801 25.7475 6.87757 25.5309 6.35468C25.3143 5.83179 24.9969 5.35668 24.5967 4.95647C24.1965 4.55627 23.7213 4.23881 23.1985 4.02222C22.6756 3.80563 22.1151 3.69415 21.5492 3.69415C20.4061 3.69415 19.3099 4.14822 18.5016 4.95647C17.6934 5.76472 17.2393 6.86094 17.2393 8.00398C17.2393 9.14702 17.6934 10.2432 18.5016 11.0515C19.3099 11.8597 20.4061 12.3138 21.5492 12.3138ZM24.6276 17.2393H18.4707C18.1441 17.2393 17.8309 17.3691 17.6 17.6C17.3691 17.8309 17.2393 18.1441 17.2393 18.4707V24.6276C17.2393 24.9542 17.3691 25.2674 17.6 25.4983C17.8309 25.7292 18.1441 25.859 18.4707 25.859H24.6276C24.9542 25.859 25.2674 25.7292 25.4983 25.4983C25.7292 25.2674 25.859 24.9542 25.859 24.6276V18.4707C25.859 18.1441 25.7292 17.8309 25.4983 17.6C25.2674 17.3691 24.9542 17.2393 24.6276 17.2393Z" stroke="#175D31" stroke-width="2" stroke-linejoin="round"/>
</svg>
