<svg width="30" height="30" viewBox="0 0 30 30" fill="none" xmlns="http://www.w3.org/2000/svg">
<g clip-path="url(#clip0_291_466)">
<path d="M18.0129 17.0783C17.1857 18.0212 16.1786 18.7926 15.045 19.3519V22.5662C15.045 22.8504 14.9321 23.1229 14.7312 23.3238C14.5303 23.5248 14.2577 23.6376 13.9736 23.6376H7.54501C7.26085 23.6376 6.98832 23.5248 6.78739 23.3238C6.58646 23.1229 6.47358 22.8504 6.47358 22.5662V19.3519C4.21575 18.2249 2.48967 16.2578 1.66574 13.8726C0.841819 11.4874 0.985711 8.87431 2.06654 6.59402C3.14737 4.31373 5.07901 2.54799 7.44693 1.67571C9.81484 0.803431 12.4303 0.894133 14.7321 1.92835M6.47358 28.9283H15.045" stroke="#175D31" stroke-width="2" stroke-linecap="round" stroke-linejoin="round"/>
<path d="M15.8465 8.42988C15.0943 8.29917 15.0943 7.21917 15.8465 7.08846C17.1778 6.85559 18.4097 6.23211 19.3858 5.29727C20.3618 4.36244 21.0378 3.15848 21.3279 1.83846L21.3729 1.62846C21.5357 0.884884 22.5943 0.880599 22.7636 1.62203L22.8193 1.86417C23.1186 3.17908 23.8002 4.37609 24.7782 5.30455C25.7562 6.23302 26.987 6.85145 28.3157 7.08203C29.0722 7.21488 29.0722 8.29917 28.3157 8.43203C26.9874 8.66299 25.7571 9.2816 24.7795 10.21C23.8019 11.1385 23.1206 12.3353 22.8215 13.6499L22.7657 13.892C22.5965 14.6335 21.5379 14.6292 21.375 13.8856L21.3322 13.6777C21.0418 12.3571 20.3652 11.1528 19.3883 10.2179C18.4115 9.28297 17.1785 8.66197 15.8465 8.42988Z" stroke="#175D31" stroke-width="2" stroke-linecap="round" stroke-linejoin="round"/>
</g>
<defs>
<clipPath id="clip0_291_466">
<rect width="30" height="30" fill="white"/>
</clipPath>
</defs>
</svg>
