<svg width="31" height="31" viewBox="0 0 31 31" fill="none" xmlns="http://www.w3.org/2000/svg">
<path d="M25.9625 5.81245C22.4033 5.81245 19.2084 5.16727 16.3254 2.27845C16.1074 2.06076 15.812 1.93848 15.5039 1.93848C15.1958 1.93848 14.9004 2.06076 14.6824 2.27845C11.7916 5.16727 8.59477 5.81245 5.03945 5.81245C4.73114 5.81245 4.43545 5.93493 4.21744 6.15294C3.99943 6.37095 3.87695 6.66664 3.87695 6.97495V13.9538C3.87695 21.4365 7.69383 26.5224 15.1338 29.0043C15.3728 29.0841 15.6311 29.0841 15.8701 29.0043C23.312 26.5243 27.127 21.4365 27.127 13.9538V6.97495C27.127 6.33364 26.6038 5.81245 25.9625 5.81245ZM25.1875 13.9519C25.1875 20.5316 22.0178 24.829 15.5 27.0804C8.98227 24.829 5.81252 20.5316 5.81252 13.9519V7.74027C8.87183 7.6647 12.307 7.06408 15.502 4.16945C18.6911 7.06214 22.1282 7.66277 25.1875 7.74027V13.9519ZM14.5293 17.0364L19.656 11.9098C19.746 11.8197 19.853 11.7482 19.9706 11.6995C20.0883 11.6508 20.2144 11.6257 20.3418 11.6257C20.4692 11.6257 20.5953 11.6508 20.713 11.6995C20.8307 11.7482 20.9376 11.8197 21.0277 11.9098C21.1178 11.9998 21.1892 12.1068 21.238 12.2244C21.2867 12.3421 21.3118 12.4683 21.3118 12.5956C21.3118 12.723 21.2867 12.8492 21.238 12.9668C21.1892 13.0845 21.1178 13.1914 21.0277 13.2815L15.2152 19.094C15.1252 19.1842 15.0183 19.2558 14.9006 19.3046C14.7829 19.3535 14.6568 19.3786 14.5293 19.3786C14.4019 19.3786 14.2757 19.3535 14.158 19.3046C14.0403 19.2558 13.9334 19.1842 13.8435 19.094L10.9372 16.1878C10.7553 16.0059 10.6531 15.7591 10.6531 15.5019C10.6531 15.2446 10.7553 14.9979 10.9372 14.816C11.1191 14.6341 11.3658 14.5319 11.6231 14.5319C11.8803 14.5319 12.127 14.6341 12.309 14.816L14.5293 17.0364Z" fill="#175D31"/>
</svg>
