<svg width="30" height="30" viewBox="0 0 30 30" fill="none" xmlns="http://www.w3.org/2000/svg">
<path d="M10 18.7498H8.75C7.42392 18.7498 6.15215 19.2766 5.21447 20.2143C4.27678 21.1519 3.75 22.4237 3.75 23.7498V26.2498M20.0638 15.7698C20.1463 15.5165 20.3077 15.2962 20.5243 15.141C20.7409 14.9858 21.0015 14.904 21.2679 14.9073C21.5343 14.9107 21.7927 14.9991 22.0054 15.1596C22.218 15.3202 22.3738 15.5445 22.45 15.7998L23.3713 17.6148C23.4609 17.7912 23.5912 17.9439 23.7513 18.0601C23.9115 18.1764 24.097 18.253 24.2925 18.2835L26.335 18.6035C26.598 18.6046 26.854 18.6885 27.0665 18.8435C27.279 18.9984 27.4373 19.2165 27.5187 19.4666C27.6001 19.7166 27.6006 19.986 27.52 20.2364C27.4395 20.4868 27.282 20.7054 27.07 20.861L25.605 22.321C25.4647 22.4607 25.3596 22.6316 25.2984 22.8198C25.2371 23.008 25.2214 23.2081 25.2525 23.4035L25.5763 25.4198C25.6653 25.6725 25.6708 25.9471 25.592 26.2032C25.5131 26.4593 25.354 26.6833 25.1382 26.8421C24.9224 27.0009 24.6613 27.0862 24.3933 27.0853C24.1254 27.0844 23.8648 26.9975 23.65 26.8373L21.8187 25.8998C21.6423 25.8094 21.447 25.7623 21.2488 25.7623C21.0505 25.7623 20.8552 25.8094 20.6787 25.8998L18.8475 26.8373C18.6327 26.9962 18.3727 27.082 18.1056 27.0823C17.8384 27.0826 17.5782 26.9974 17.3631 26.839C17.1479 26.6806 16.9892 26.4575 16.9101 26.2023C16.8311 25.9471 16.8358 25.6733 16.9237 25.421L17.2462 23.4048C17.2774 23.2093 17.2617 23.0093 17.2004 22.8211C17.1391 22.6329 17.034 22.4619 16.8938 22.3223L15.4488 20.881C15.2296 20.7292 15.0647 20.5112 14.9782 20.259C14.8917 20.0068 14.8881 19.7335 14.968 19.4791C15.0479 19.2247 15.207 19.0025 15.4221 18.845C15.6372 18.6875 15.8971 18.6029 16.1637 18.6035L18.205 18.2835C18.4005 18.253 18.586 18.1764 18.7462 18.0601C18.9063 17.9439 19.0366 17.7912 19.1262 17.6148L20.0638 15.7698Z" stroke="#175D31" stroke-width="1.75" stroke-linecap="round" stroke-linejoin="round"/>
<path d="M12.5 13.75C15.2614 13.75 17.5 11.5114 17.5 8.75C17.5 5.98858 15.2614 3.75 12.5 3.75C9.73858 3.75 7.5 5.98858 7.5 8.75C7.5 11.5114 9.73858 13.75 12.5 13.75Z" stroke="#175D31" stroke-width="1.75" stroke-linecap="round" stroke-linejoin="round"/>
</svg>
