<svg width="112" height="57" viewBox="0 0 112 57" fill="none" xmlns="http://www.w3.org/2000/svg">
<path d="M76.2143 56.3088V51.3033L76.1117 51.3484C74.9451 51.8935 73.6759 52.2044 72.374 52.263C71.028 52.3562 69.6924 51.977 68.6129 51.1952C67.8455 50.6226 67.2734 49.8411 66.9704 48.9515C66.6411 47.9798 66.6038 46.9378 66.8631 45.9465C67.1057 44.9328 67.6937 44.0272 68.529 43.3829C69.2756 42.7792 70.1855 42.4007 71.1514 42.2926C72.8569 42.1082 74.5805 42.4188 76.1023 43.1847L76.2143 43.2432V38.2108L75.9763 38.1477C74.4525 37.682 72.8553 37.4807 71.2587 37.553C69.8035 37.5833 68.3699 37.8991 67.0451 38.4811C65.7059 39.0758 64.5253 39.9543 63.5967 41.0536C62.1792 42.7813 61.3924 44.9127 61.3586 47.1165C61.3249 49.3204 62.046 51.4732 63.41 53.2406C64.7866 54.9436 66.7184 56.1466 68.8929 56.6467C71.1841 57.1873 73.5872 57.1062 75.8317 56.4124L76.2143 56.3088ZM24.9086 56.3088V51.3033L24.8059 51.3484C23.6394 51.8935 22.3701 52.2044 21.0682 52.263C19.7214 52.3646 18.3828 51.9845 17.3072 51.1952C16.5394 50.6239 15.9685 49.8418 15.6694 48.9515C15.3385 47.9802 15.2996 46.9382 15.5574 45.9465C15.8 44.9328 16.3833 44.0272 17.2232 43.3829C17.9698 42.7792 18.8798 42.4007 19.8457 42.2926C21.5511 42.1082 23.2748 42.4188 24.7966 43.1847L24.9086 43.2432V38.2108L24.6706 38.1477C23.1468 37.682 21.5496 37.4807 19.953 37.553C18.4978 37.5833 17.0642 37.8991 15.7394 38.4811C14.4028 39.0773 13.2225 39.9566 12.2863 41.0536C10.8711 42.7821 10.0853 44.9127 10.0508 47.1158C10.0162 49.3189 10.7347 51.4715 12.095 53.2406C13.4676 54.9478 15.4041 56.1498 17.5825 56.6467C19.8737 57.1873 22.2721 57.1062 24.5213 56.4124L24.9086 56.3088ZM43.2191 52.1548L43.2004 56.4664L43.527 56.5205C44.5536 56.7037 45.5864 56.8314 46.6254 56.9035C47.5369 56.9876 48.45 57.0056 49.3646 56.9575C50.2418 56.8945 51.0989 56.7383 51.9357 56.489C52.9156 56.2187 53.8255 55.7546 54.6001 55.1148C55.2994 54.5363 55.8342 53.7951 56.154 52.9613C56.715 51.5684 56.7034 50.021 56.1213 48.6362C55.8156 47.9178 55.3393 47.2789 54.7308 46.7709C54.1342 46.2622 53.4397 45.8718 52.6869 45.6221L49.3179 44.4146C48.9183 44.2448 48.593 43.9451 48.3986 43.5676C48.3268 43.4112 48.2929 43.2411 48.2994 43.0701C48.3058 42.8992 48.3525 42.7319 48.436 42.581C48.6124 42.3099 48.8604 42.089 49.1546 41.9412C49.5321 41.7659 49.9375 41.6532 50.3538 41.6078C51.0693 41.5057 51.7848 41.5132 52.5003 41.6303C53.3402 41.7204 54.1693 41.8646 54.9874 42.0628L55.1647 42.0989V38.1207L54.8428 38.0531C54.0071 37.8625 53.1613 37.7166 52.309 37.6161C51.2035 37.4743 50.0839 37.4698 48.9773 37.6026C47.5774 37.7242 46.2475 38.2468 45.1462 39.0893C44.3996 39.657 43.835 40.4094 43.5084 41.2699C43.0231 42.5765 43.0184 44.0092 43.5084 45.3202C43.7635 45.978 44.1554 46.5502 44.6843 47.0368C45.1385 47.4573 45.6471 47.8117 46.2101 48.1C46.9443 48.4785 47.7174 48.7713 48.5293 48.9786C48.7968 49.0567 49.0612 49.1377 49.3226 49.2218L49.7192 49.3615L49.8312 49.4066C50.2231 49.5417 50.5871 49.758 50.8858 50.0373C51.0973 50.2295 51.2544 50.4563 51.3571 50.7176C51.427 50.9545 51.4286 51.2053 51.3617 51.443C51.2352 51.8272 50.9568 52.1477 50.5871 52.335C50.1837 52.5299 49.7504 52.6607 49.3039 52.7225C48.6451 52.8227 47.9771 52.8544 47.3114 52.8171C46.4392 52.7531 45.5715 52.6418 44.7123 52.4837C44.2642 52.3902 43.8177 52.2895 43.3731 52.1819L43.2191 52.1548ZM31.67 56.6376H36.5696V37.8639H31.67V56.6376ZM88.4213 43.4099C88.9418 43.0006 89.5407 42.6943 90.1838 42.5085C90.8269 42.3228 91.5017 42.2612 92.1694 42.3273C92.8372 42.3934 93.485 42.5859 94.0757 42.8938C94.6664 43.2017 95.1884 43.619 95.612 44.1218C96.0368 44.6238 96.3549 45.2018 96.548 45.8226C96.7411 46.4435 96.8055 47.095 96.7375 47.7399C96.6694 48.3848 96.4703 49.0104 96.1515 49.5809C95.8326 50.1514 95.4004 50.6556 94.8794 51.0645L94.8001 51.1276C93.7373 51.9144 92.3974 52.2673 91.068 52.1105C89.7387 51.9537 88.5261 51.2997 87.6908 50.289C86.8555 49.2784 86.464 47.9917 86.6006 46.7054C86.7372 45.4191 87.3909 44.2359 88.4213 43.4099ZM81.3052 47.2575C81.329 48.7229 81.6901 50.1648 82.3623 51.4787C83.0346 52.7927 84.0012 53.9458 85.192 54.8545C86.3829 55.7632 87.7682 56.4047 89.2476 56.7326C90.727 57.0605 92.2634 57.0666 93.7455 56.7503C95.7345 56.3869 97.562 55.4483 98.9857 54.0588C100.409 52.6694 101.362 50.8949 101.717 48.9707C102.071 47.0465 101.812 45.0636 100.973 43.2851C100.133 41.5066 98.7534 40.0166 97.0166 39.0127C95.4725 38.0911 93.7035 37.5799 91.8889 37.531C90.0742 37.482 88.2784 37.8971 86.6835 38.7341C85.0885 39.5711 83.751 40.8003 82.8065 42.2971C81.862 43.7939 81.3441 45.5052 81.3052 47.2575ZM107.152 22.7754C107.179 23.3784 107.447 23.9479 107.898 24.3653C108.35 24.7826 108.951 25.0155 109.576 25.0155C110.201 25.0155 110.802 24.7826 111.254 24.3653C111.705 23.9479 111.973 23.3784 112 22.7754V17.5718C111.973 16.9688 111.705 16.3993 111.254 15.982C110.802 15.5646 110.201 15.3317 109.576 15.3317C108.951 15.3317 108.35 15.5646 107.898 15.982C107.447 16.3993 107.179 16.9688 107.152 17.5718V22.7754ZM93.8809 22.7754C93.9274 23.3666 94.2034 23.919 94.6538 24.3221C95.1042 24.7251 95.6956 24.9491 96.3096 24.9491C96.9237 24.9491 97.5151 24.7251 97.9655 24.3221C98.4159 23.919 98.6919 23.3666 98.7384 22.7754V11.1111C98.7001 10.5149 98.4278 9.95518 97.977 9.54606C97.5261 9.13694 96.9307 8.90918 96.312 8.90918C95.6933 8.90918 95.0978 9.13694 94.647 9.54606C94.1962 9.95518 93.9238 10.5149 93.8855 11.1111L93.8809 22.7754ZM80.414 27.4745C80.4604 28.0646 80.736 28.6159 81.1855 29.0181C81.635 29.4203 82.2252 29.6438 82.8381 29.6438C83.451 29.6438 84.0412 29.4203 84.4907 29.0181C84.9402 28.6159 85.2158 28.0646 85.2622 27.4745V2.24007C85.2348 1.63709 84.9674 1.06758 84.5158 0.650259C84.0642 0.232937 83.4632 0 82.8381 0C82.213 0 81.612 0.232937 81.1604 0.650259C80.7088 1.06758 80.4414 1.63709 80.414 2.24007V27.4745ZM67.1711 22.7754C67.2094 23.3717 67.4817 23.9314 67.9325 24.3405C68.3834 24.7496 68.9788 24.9774 69.5975 24.9774C70.2162 24.9774 70.8117 24.7496 71.2625 24.3405C71.7134 23.9314 71.9857 23.3717 72.024 22.7754V11.1111C71.9966 10.5081 71.7292 9.93861 71.2776 9.52129C70.826 9.10397 70.225 8.87103 69.5999 8.87103C68.9747 8.87103 68.3737 9.10397 67.9221 9.52129C67.4705 9.93861 67.2031 10.5081 67.1757 11.1111L67.1711 22.7754ZM53.6389 22.7754C53.698 23.3566 53.9789 23.8957 54.427 24.2879C54.875 24.6801 55.4582 24.8973 56.063 24.8973C56.6678 24.8973 57.2509 24.6801 57.699 24.2879C58.1471 23.8957 58.428 23.3566 58.4871 22.7754V17.5718C58.4597 16.9688 58.1923 16.3993 57.7407 15.982C57.2891 15.5646 56.6881 15.3317 56.063 15.3317C55.4379 15.3317 54.8369 15.5646 54.3853 15.982C53.9336 16.3993 53.6663 16.9688 53.6389 17.5718V22.7754ZM40.2466 22.7754C40.2741 23.3784 40.5414 23.9479 40.993 24.3653C41.4447 24.7826 42.0457 25.0155 42.6708 25.0155C43.2959 25.0155 43.8969 24.7826 44.3485 24.3653C44.8001 23.9479 45.0675 23.3784 45.0949 22.7754V11.1111C45.0675 10.5081 44.8001 9.93861 44.3485 9.52129C43.8969 9.10397 43.2959 8.87103 42.6708 8.87103C42.0457 8.87103 41.4447 9.10397 40.993 9.52129C40.5414 9.93861 40.2741 10.5081 40.2466 11.1111V22.7754ZM26.7751 27.4745C26.8025 28.0775 27.0699 28.647 27.5215 29.0643C27.9731 29.4817 28.5741 29.7146 29.1992 29.7146C29.8244 29.7146 30.4254 29.4817 30.877 29.0643C31.3286 28.647 31.596 28.0775 31.6234 27.4745V2.24007C31.596 1.63709 31.3286 1.06758 30.877 0.650259C30.4254 0.232937 29.8244 0 29.1992 0C28.5741 0 27.9731 0.232937 27.5215 0.650259C27.0699 1.06758 26.8025 1.63709 26.7751 2.24007V27.4745ZM13.4249 22.7754C13.4782 23.3613 13.7568 23.9067 14.206 24.3039C14.6552 24.7012 15.2422 24.9216 15.8513 24.9216C16.4605 24.9216 17.0475 24.7012 17.4967 24.3039C17.9458 23.9067 18.2245 23.3613 18.2778 22.7754V11.1111C18.2504 10.5081 17.983 9.93861 17.5314 9.52129C17.0798 9.10397 16.4788 8.87103 15.8537 8.87103C15.2286 8.87103 14.6276 9.10397 14.1759 9.52129C13.7243 9.93861 13.457 10.5081 13.4295 11.1111L13.4249 22.7754ZM0 22.7754C0.0464722 23.3655 0.322033 23.9168 0.771524 24.319C1.22101 24.7213 1.81127 24.9447 2.42413 24.9447C3.037 24.9447 3.62725 24.7213 4.07674 24.319C4.52623 23.9168 4.80179 23.3655 4.84826 22.7754V17.5718C4.82086 16.9688 4.55348 16.3993 4.10187 15.982C3.65025 15.5646 3.04925 15.3317 2.42413 15.3317C1.79901 15.3317 1.19801 15.5646 0.746395 15.982C0.294782 16.3993 0.0274068 16.9688 0 17.5718V22.7754Z" fill="#1D1D1D"/>
</svg>
